<?xml version="1.0" standalone="no"?>
<!DOCTYPE svg PUBLIC "-//W3C//DTD SVG 20010904//EN"
 "http://www.w3.org/TR/2001/REC-SVG-20010904/DTD/svg10.dtd">
<svg version="1.0" xmlns="http://www.w3.org/2000/svg"
 width="100.000000pt" height="100.000000pt" viewBox="0 0 100.000000 100.000000"
 preserveAspectRatio="xMidYMid meet">

<g transform="translate(0.000000,100.000000) scale(0.100000,-0.100000)"
fill="#000000" stroke="none">
<path d="M194 896 l-35 -35 3 -350 3 -351 28 -27 27 -28 280 0 280 0 27 28 28
27 3 351 3 350 -35 35 -34 34 -272 0 -272 0 -34 -34z m584 -28 c9 -9 12 -101
12 -355 0 -328 -1 -343 -19 -353 -26 -14 -516 -14 -542 0 -18 10 -19 25 -19
353 0 254 3 346 12 355 17 17 539 17 556 0z"/>
<path d="M260 770 l0 -60 240 0 240 0 0 60 0 60 -240 0 -240 0 0 -60z"/>
<path d="M277 593 c-4 -3 -7 -12 -7 -20 0 -10 43 -13 220 -13 213 0 220 1 220
20 0 19 -7 20 -213 20 -118 0 -217 -3 -220 -7z"/>
<path d="M275 470 c-16 -26 14 -30 221 -30 207 0 214 1 214 20 0 19 -7 20
-214 20 -133 0 -217 -4 -221 -10z"/>
<path d="M281 361 c-8 -5 -11 -16 -8 -25 6 -14 23 -16 124 -14 110 3 118 4
118 23 0 19 -8 20 -110 23 -60 1 -116 -2 -124 -7z"/>
</g>
</svg>
