<?xml version="1.0" standalone="no"?>
<!DOCTYPE svg PUBLIC "-//W3C//DTD SVG 20010904//EN"
 "http://www.w3.org/TR/2001/REC-SVG-20010904/DTD/svg10.dtd">
<svg version="1.0" xmlns="http://www.w3.org/2000/svg"
 width="100.000000pt" height="100.000000pt" viewBox="0 0 100.000000 100.000000"
 preserveAspectRatio="xMidYMid meet">

<g transform="translate(0.000000,100.000000) scale(0.100000,-0.100000)"
fill="#000000" stroke="none">
<path d="M395 946 c-86 -22 -148 -58 -216 -125 -76 -77 -113 -147 -131 -250
-15 -87 -1 -185 38 -267 49 -104 185 -224 256 -228 l33 -1 3 73 3 72 -46 0
c-61 0 -80 12 -106 63 -12 23 -28 50 -37 60 -13 14 -13 17 -1 17 8 0 34 -19
58 -41 41 -40 45 -41 96 -37 39 3 62 12 85 31 17 15 25 27 18 27 -40 0 -123
35 -158 66 l-39 36 -88 -7 c-64 -5 -85 -4 -78 4 6 6 46 14 88 17 101 9 86 28
-17 22 -57 -2 -76 0 -76 9 0 10 22 13 80 13 l80 0 0 38 c1 20 7 48 15 62 9 16
12 40 8 67 -12 91 15 113 89 73 29 -15 43 -17 70 -10 42 13 114 13 155 1 25
-7 40 -5 70 10 75 38 103 16 89 -70 -4 -25 0 -52 9 -75 8 -19 15 -49 15 -66
l0 -30 80 0 c47 0 80 -4 80 -10 0 -6 -35 -10 -85 -10 -47 0 -85 -4 -85 -9 0
-4 35 -11 77 -15 42 -3 82 -11 88 -17 7 -8 -17 -9 -87 -4 -70 5 -98 4 -98 -4
0 -21 -82 -70 -136 -81 l-55 -12 26 -20 c40 -31 49 -57 55 -153 l5 -90 33 1
c43 2 120 53 181 120 125 137 154 333 74 502 -35 74 -140 180 -213 214 -101
47 -206 59 -305 34z"/>
</g>
</svg>
