<?xml version="1.0" standalone="no"?>
<!DOCTYPE svg PUBLIC "-//W3C//DTD SVG 20010904//EN"
 "http://www.w3.org/TR/2001/REC-SVG-20010904/DTD/svg10.dtd">
<svg version="1.0" xmlns="http://www.w3.org/2000/svg"
 width="100.000000pt" height="100.000000pt" viewBox="0 0 100.000000 100.000000"
 preserveAspectRatio="xMidYMid meet">

<g transform="translate(0.000000,100.000000) scale(0.100000,-0.100000)"
fill="#000000" stroke="none">
<path d="M131 906 c-49 -27 -50 -37 -51 -409 l0 -349 34 -34 34 -34 352 0 352
0 34 34 34 34 0 352 0 352 -34 34 -34 34 -349 0 c-270 -1 -353 -4 -372 -14z
m191 -163 c22 -20 23 -41 1 -65 -30 -33 -103 -12 -103 30 0 45 66 68 102 35z
m18 -333 l0 -190 -60 0 -60 0 0 190 0 190 60 0 60 0 0 -190z m180 165 l0 -26
29 22 c45 33 117 37 161 7 59 -40 70 -74 70 -225 l0 -133 -60 0 -60 0 0 114
c0 99 -3 117 -21 140 -13 17 -30 26 -49 26 -19 0 -36 -9 -49 -26 -18 -23 -21
-41 -21 -140 l0 -114 -60 0 -60 0 0 190 0 190 60 0 c58 0 60 -1 60 -25z"/>
</g>
</svg>
